Miklós Jancsó's Silence and Cry is set during a turbulent era of disquiet, fear, persecution and terror, which permeates every corner of post-WWI Hungarian society. In 1919, after just a few months of communist rule the Hungarian Republic of Councils falls victim to a nationalist counter-revolution. Admiral Horthy, leader of the nationalist far right movement, becomes the self-proclaimed regent of Hungary, and assumes power as the legal Head of State. Soldiers of the short-lived Hungarian Red Army are now on the run from relentless secret policemen and patrol units of the nationalist Royal Gendarme. If caught, ex-Red Army soldiers are executed without mercy or proper trial. István Cserzi, a former soldier of the Red Army has fled to the Great Hungarian Plains and has taken refuge on a farm, which is run by two sympathetic women. Due to the generosity of these women and a former childhood pal, who is now a commandant of the local Royal Gendarme outfit, István is safely hidden from the ever-prying eyes of the secret policemen, who relentlessly roam the countryside searching for ex-Red Army men and their sympathisers. However, upon discovering that the women are secretly poisoning the mother-in-law and the husband, the legal owners of the farm, István must make the most difficult decision of his life. As a personal war is waging within his own consciousness over morality and self-preservation, István must decide whether to remain silent about the women's devious secret and preserve his own life, or to report their heinous crime to the Royal Gendarme, which would also mean certain death for him. Written by 21st Century DreamQuest Films Ltd

   General
      Complete name : Csend es kialtas.avi
      Format : AVI
      Format/Info : Audio Video Interleave
      File size : 1.03 GiB
      Duration : 1h 13mn
      Overall bit rate : 2 000 Kbps
      Writing application : FairUse Wizard - http://fairusewizard.com
   Video #0
      ID : 0
      Format : MPEG-4 Visual
      Format profile : AdvancedSimple@L5
      Format settings, BVOP : Yes
      Format settings, QPel : No
      Format settings, GMC : No warppoints
      Format settings, Matrix : Default (MPEG)
      Muxing mode : Packed bitstream
      Codec ID : XVID
      Codec ID/Hint : XviD
      Duration : 1h 13mn
      Bit rate : 1 735 Kbps
      Width : 672 pixels
      Height : 288 pixels
      Display aspect ratio : 2.35:1
      Frame rate : 25.000 fps
      Resolution : 24 bits
      Colorimetry : 4:2:0
      Scan type : Progressive
      Bits/(Pixel*Frame) : 0.359
      Stream size : 911 MiB (87%)
      Writing library : XviD 1.2.1 (UTC 2008-12-04)
   Audio #1
      ID : 1
      Format : AC-3
      Format/Info : Audio Coding 3
      Format profile : Dolby Digital
      Codec ID : 2000
      Duration : 1h 13mn
      Bit rate mode : Constant
      Bit rate : 256 Kbps
      Channel(s) : 2 channels
      Channel positions : L R
      Sampling rate : 48.0 KHz
      Stream size : 134 MiB (13%)
      Alignment : Split accross interleaves
      Interleave, duration : 40 ms (1.00 video frame)
      Interleave, preload duration : 500 ms
 
http://www.imdb.com/title/tt0061536/

Hungarian audio; English, French, Spanish and Portuguese subtitles

My rip

Miklos Jancso - Csend es kialtas [Silence and Cry] (1967)